<svg width="26" height="25" viewBox="0 0 26 25" fill="none" xmlns="http://www.w3.org/2000/svg">
<g filter="url(#filter0_d_1070_13786)">
<path d="M12.1221 0.609787C12.5011 -0.085154 13.4989 -0.0851549 13.8779 0.609786L15.888 4.29546C16.0318 4.55919 16.2866 4.74429 16.5818 4.79958L20.7083 5.57232C21.4863 5.71802 21.7947 6.66704 21.2509 7.24224L18.3667 10.2929C18.1603 10.5111 18.063 10.8106 18.1017 11.1085L18.6419 15.2718C18.7438 16.0568 17.9365 16.6433 17.2214 16.3039L13.4288 14.5036C13.1575 14.3747 12.8425 14.3747 12.5712 14.5036L8.77861 16.3039C8.06352 16.6433 7.25624 16.0568 7.3581 15.2718L7.89832 11.1085C7.93697 10.8106 7.83966 10.5111 7.63329 10.2929L4.74914 7.24224C4.20533 6.66704 4.51368 5.71802 5.29173 5.57232L9.41816 4.79958C9.71342 4.74429 9.96819 4.55919 10.112 4.29546L12.1221 0.609787Z" fill="black"/>
</g>
<defs>
<filter id="filter0_d_1070_13786" x="0.474854" y="0.088562" width="25.0503" height="24.3137" filterUnits="userSpaceOnUse" color-interpolation-filters="sRGB">
<feFlood flood-opacity="0" result="BackgroundImageFix"/>
<feColorMatrix in="SourceAlpha" type="matrix" values="0 0 0 0 0 0 0 0 0 0 0 0 0 0 0 0 0 0 127 0" result="hardAlpha"/>
<feOffset dy="4"/>
<feGaussianBlur stdDeviation="2"/>
<feComposite in2="hardAlpha" operator="out"/>
<feColorMatrix type="matrix" values="0 0 0 0 0 0 0 0 0 0 0 0 0 0 0 0 0 0 0.25 0"/>
<feBlend mode="normal" in2="BackgroundImageFix" result="effect1_dropShadow_1070_13786"/>
<feBlend mode="normal" in="SourceGraphic" in2="effect1_dropShadow_1070_13786" result="shape"/>
</filter>
</defs>
</svg>
