<svg width="26" height="26" viewBox="0 0 26 26" fill="none" xmlns="http://www.w3.org/2000/svg">
<g filter="url(#filter0_d_1070_13782)">
<path d="M12.1221 1.60979C12.5011 0.914846 13.4989 0.914845 13.8779 1.60979L15.888 5.29546C16.0318 5.55919 16.2866 5.74429 16.5818 5.79958L20.7083 6.57232C21.4863 6.71802 21.7947 7.66704 21.2509 8.24224L18.3667 11.2929C18.1603 11.5111 18.063 11.8106 18.1017 12.1085L18.6419 16.2718C18.7438 17.0568 17.9365 17.6433 17.2214 17.3039L13.4288 15.5036C13.1575 15.3747 12.8425 15.3747 12.5712 15.5036L8.77861 17.3039C8.06352 17.6433 7.25624 17.0568 7.3581 16.2718L7.89832 12.1085C7.93697 11.8106 7.83966 11.5111 7.63329 11.2929L4.74914 8.24224C4.20533 7.66704 4.51368 6.71802 5.29173 6.57232L9.41816 5.79958C9.71342 5.74429 9.96819 5.55919 10.112 5.29546L12.1221 1.60979Z" fill="#C4C4C4"/>
<path d="M11 9.5L12.4293 10.9293C12.4683 10.9683 12.5317 10.9683 12.5707 10.9293L15.5 8" stroke="white" stroke-width="0.6" stroke-linecap="round"/>
</g>
<defs>
<filter id="filter0_d_1070_13782" x="0.474854" y="1.08856" width="25.0503" height="24.3137" filterUnits="userSpaceOnUse" color-interpolation-filters="sRGB">
<feFlood flood-opacity="0" result="BackgroundImageFix"/>
<feColorMatrix in="SourceAlpha" type="matrix" values="0 0 0 0 0 0 0 0 0 0 0 0 0 0 0 0 0 0 127 0" result="hardAlpha"/>
<feOffset dy="4"/>
<feGaussianBlur stdDeviation="2"/>
<feComposite in2="hardAlpha" operator="out"/>
<feColorMatrix type="matrix" values="0 0 0 0 0 0 0 0 0 0 0 0 0 0 0 0 0 0 0.25 0"/>
<feBlend mode="normal" in2="BackgroundImageFix" result="effect1_dropShadow_1070_13782"/>
<feBlend mode="normal" in="SourceGraphic" in2="effect1_dropShadow_1070_13782" result="shape"/>
</filter>
</defs>
</svg>
